<svg xmlns="http://www.w3.org/2000/svg" width="38.186" height="38.187" viewBox="0 0 38.186 38.187">
  <g id="Icon_akar-moon-fill" data-name="Icon akar-moon-fill" transform="translate(-6.354 19.995) rotate(-47)">
    <path id="Path_1" data-name="Path 1" d="M31.437,22.987c.306-.729-.186-1.467-1.029-.562-2.536,3.257-7.748,4.232-9.349,4.229-6.278,0-10.971-6.343-10.971-12.495,0-2.077,2.393-6.978,5.568-8.68.463-.457.078-1.151-.7-.953A13.767,13.767,0,0,0,4.5,17.793,13.518,13.518,0,0,0,8,27.128,14.424,14.424,0,0,0,18.489,31.5,13.992,13.992,0,0,0,31.437,22.987Z"/>
    <ellipse id="Ellipse_5" data-name="Ellipse 5" cx="9.448" cy="9.298" rx="9.448" ry="9.298" transform="translate(12.032 5.954)"/>
  </g>
</svg>
